G04 Layer: TopSilkscreenLayer*
G04 EasyEDA v6.5.44, 2024-08-16 12:26:17*
G04 7e42b9d55ad24638b13205517f627361,2d8cd5a3a09a4cbeba5460295dcbb1e6,10*
G04 Gerber Generator version 0.2*
G04 Scale: 100 percent, Rotated: No, Reflected: No *
G04 Dimensions in millimeters *
G04 leading zeros omitted , absolute positions ,4 integer and 5 decimal *
%FSLAX45Y45*%
%MOMM*%

%ADD10C,0.1524*%
%ADD11C,0.2540*%

%LPD*%
D10*
X5887211Y-2514600D02*
G01*
X5881877Y-2504186D01*
X5866384Y-2488692D01*
X5975350Y-2488692D01*
X4468622Y-1016507D02*
G01*
X4473956Y-1026921D01*
X4484370Y-1037336D01*
X4494529Y-1042415D01*
X4515358Y-1042415D01*
X4525772Y-1037336D01*
X4536186Y-1026921D01*
X4541520Y-1016507D01*
X4546600Y-1000760D01*
X4546600Y-974852D01*
X4541520Y-959357D01*
X4536186Y-948944D01*
X4525772Y-938529D01*
X4515358Y-933450D01*
X4494529Y-933450D01*
X4484370Y-938529D01*
X4473956Y-948944D01*
X4468622Y-959357D01*
X4434331Y-1021587D02*
G01*
X4423918Y-1026921D01*
X4408424Y-1042415D01*
X4408424Y-933450D01*
X1106551Y-570611D02*
G01*
X1106551Y-679577D01*
X1106551Y-679577D02*
G01*
X1168780Y-679577D01*
X1203070Y-570611D02*
G01*
X1203070Y-679577D01*
X1203070Y-570611D02*
G01*
X1270635Y-570611D01*
X1203070Y-622427D02*
G01*
X1244727Y-622427D01*
X1203070Y-679577D02*
G01*
X1270635Y-679577D01*
X1304925Y-570611D02*
G01*
X1304925Y-679577D01*
X1304925Y-570611D02*
G01*
X1341501Y-570611D01*
X1356995Y-575690D01*
X1367409Y-586104D01*
X1372488Y-596519D01*
X1377822Y-612267D01*
X1377822Y-638175D01*
X1372488Y-653669D01*
X1367409Y-664082D01*
X1356995Y-674496D01*
X1341501Y-679577D01*
X1304925Y-679577D01*
X1412112Y-591438D02*
G01*
X1422527Y-586104D01*
X1438020Y-570611D01*
X1438020Y-679577D01*
X4547615Y-4381500D02*
G01*
X4438650Y-4381500D01*
X4547615Y-4381500D02*
G01*
X4547615Y-4428236D01*
X4542536Y-4443729D01*
X4537202Y-4449063D01*
X4526788Y-4454144D01*
X4516374Y-4454144D01*
X4505959Y-4449063D01*
X4500879Y-4443729D01*
X4495800Y-4428236D01*
X4495800Y-4381500D01*
X4495800Y-4417821D02*
G01*
X4438650Y-4454144D01*
X4526788Y-4488434D02*
G01*
X4532122Y-4498847D01*
X4547615Y-4514595D01*
X4438650Y-4514595D01*
X5528459Y-2774843D02*
G01*
X5528459Y-2696865D01*
X5523379Y-2681371D01*
X5512965Y-2670957D01*
X5497217Y-2665877D01*
X5486803Y-2665877D01*
X5471309Y-2670957D01*
X5460895Y-2681371D01*
X5455815Y-2696865D01*
X5455815Y-2774843D01*
X5421525Y-2754015D02*
G01*
X5411111Y-2759349D01*
X5395363Y-2774843D01*
X5395363Y-2665877D01*
D11*
X4382198Y-865477D02*
G01*
X4382198Y-785474D01*
X4493173Y-896462D02*
G01*
X4413176Y-896462D01*
X4493173Y-754496D02*
G01*
X4413176Y-754496D01*
X4550763Y-897044D02*
G01*
X4630762Y-897044D01*
X4661745Y-866061D02*
G01*
X4661745Y-786063D01*
X4550763Y-755083D02*
G01*
X4630762Y-755083D01*
X1150299Y-762800D02*
G01*
X1110300Y-802800D01*
X1100300Y-812800D01*
X1110300Y-822825D01*
X1150299Y-862825D01*
X1150299Y-762800D02*
G01*
X1150299Y-862825D01*
X1174622Y-914527D02*
G01*
X1329562Y-914527D01*
X1329562Y-711327D01*
X1174622Y-711327D01*
X1095882Y-917067D02*
G01*
X948562Y-917067D01*
X907922Y-876427D01*
X907922Y-749427D01*
X946022Y-711327D01*
X1098422Y-711327D01*
D10*
X4264639Y-4424121D02*
G01*
X4264639Y-4520008D01*
X4396760Y-4520008D01*
X4396760Y-4424121D01*
X4264639Y-4338878D02*
G01*
X4264639Y-4242991D01*
X4396760Y-4242991D01*
X4396760Y-4338878D01*
D11*
X5425986Y-2614602D02*
G01*
X5411797Y-2614602D01*
X5611799Y-2547109D02*
G01*
X5611799Y-2614602D01*
X5597603Y-2614602D01*
X5597603Y-2414602D02*
G01*
X5611799Y-2414602D01*
X5611799Y-2482108D01*
X5411797Y-2414602D02*
G01*
X5425986Y-2414602D01*
X5411797Y-2482108D02*
G01*
X5411797Y-2414602D01*
X5411797Y-2614602D02*
G01*
X5411797Y-2547109D01*
G75*
G01*
X4661751Y-866061D02*
G02*
X4630768Y-897044I-30983J0D01*
G75*
G01*
X4630768Y-755078D02*
G02*
X4661751Y-786064I0J-30983D01*
G75*
G01*
X4413181Y-896463D02*
G02*
X4382199Y-865477I0J30983D01*
G75*
G01*
X4382199Y-785480D02*
G02*
X4413181Y-754497I30982J0D01*
G75*
G01
X5568925Y-2387600D02*
G03X5568925Y-2387600I-6350J0D01*
M02*
