<svg xmlns="http://www.w3.org/2000/svg" xmlns:xlink="http://www.w3.org/1999/xlink" width="93.091mm" height="55.093mm" viewBox="4010 3533 366.5 216.9"><title></title><style type="text/css">
*[layerid="1"] {stroke:#000000;fill:#000000;}
*[layerid="2"] {stroke:#000000;fill:#000000;}
*[layerid="3"] {stroke:#000000;fill:#000000;}
*[layerid="4"] {stroke:#000000;fill:#000000;}
*[layerid="5"] {stroke:#000000;fill:#000000;}
*[layerid="6"] {stroke:#000000;fill:#000000;}
*[layerid="7"] {stroke:#000000;fill:#000000;}
*[layerid="8"] {stroke:#000000;fill:#000000;}
*[layerid="9"] {stroke:#000000;fill:#000000;}
*[layerid="10"] {stroke:#000000;fill:#000000;}
*[layerid="11"] {stroke:#000000;fill:#000000;}
*[layerid="12"] {stroke:#000000;fill:#000000;}
*[layerid="13"] {stroke:#000000;fill:#000000;}
*[layerid="14"] {stroke:#000000;fill:#000000;}
*[layerid="15"] {stroke:#000000;fill:#000000;}
*[layerid="19"] {stroke:#000000;fill:#000000;}
*[layerid="21"] {stroke:#000000;fill:#000000;}
*[layerid="22"] {stroke:#000000;fill:#000000;}
*[layerid="23"] {stroke:#000000;fill:#000000;}
*[layerid="24"] {stroke:#000000;fill:#000000;}
*[layerid="25"] {stroke:#000000;fill:#000000;}
*[layerid="26"] {stroke:#000000;fill:#000000;}
*[layerid="27"] {stroke:#000000;fill:#000000;}
*[layerid="28"] {stroke:#000000;fill:#000000;}
*[layerid="29"] {stroke:#000000;fill:#000000;}
*[layerid="30"] {stroke:#000000;fill:#000000;}
*[layerid="31"] {stroke:#000000;fill:#000000;}
*[layerid="32"] {stroke:#000000;fill:#000000;}
*[layerid="33"] {stroke:#000000;fill:#000000;}
*[layerid="34"] {stroke:#000000;fill:#000000;}
*[layerid="35"] {stroke:#000000;fill:#000000;}
*[layerid="36"] {stroke:#000000;fill:#000000;}
*[layerid="37"] {stroke:#000000;fill:#000000;}
*[layerid="38"] {stroke:#000000;fill:#000000;}
*[layerid="39"] {stroke:#000000;fill:#000000;}
*[layerid="40"] {stroke:#000000;fill:#000000;}
*[layerid="41"] {stroke:#000000;fill:#000000;}
*[layerid="42"] {stroke:#000000;fill:#000000;}
*[layerid="43"] {stroke:#000000;fill:#000000;}
*[layerid="44"] {stroke:#000000;fill:#000000;}
*[layerid="45"] {stroke:#000000;fill:#000000;}
*[layerid="46"] {stroke:#000000;fill:#000000;}
*[layerid="47"] {stroke:#000000;fill:#000000;}
*[layerid="48"] {stroke:#000000;fill:#000000;}
*[layerid="49"] {stroke:#000000;fill:#000000;}
*[layerid="50"] {stroke:#000000;fill:#000000;}
*[layerid="51"] {stroke:#000000;fill:#000000;}
*[layerid="52"] {stroke:#000000;fill:#000000;}
*[layerid="99"] {stroke:#000000;fill:#000000;}
*[layerid="100"] {stroke:#000000;fill:#000000;}
*[layerid="101"] {stroke:#000000;fill:#000000;}
*[layerid="Hole"] {stroke:#000000;fill:#000000;}
*[layerid="DRCError"] {stroke:#000000;fill:#000000;}
*[fill="none"] {fill: none;}
*[stroke="none"] {stroke: none;}
path, polyline, polygon, line {stroke-linecap:round;}
g[c_partid="part_pad"][layerid="1"] ellipse:not([c_etype="pad_outer"]) {fill:#000000;}
g[c_partid="part_pad"][layerid="1"] polygon:not([c_etype="pad_outer"]) {fill:#000000;}
g[c_partid="part_pad"][layerid="1"] polyline:not([c_etype="pad_outer"]) {stroke:#000000;}
g[c_partid="part_pad"][layerid="2"] ellipse:not([c_etype="pad_outer"]) {fill:#000000;}
g[c_partid="part_pad"][layerid="2"] polygon:not([c_etype="pad_outer"]) {fill:#000000;}
g[c_partid="part_pad"][layerid="2"] polyline:not([c_etype="pad_outer"]) {stroke:#000000;}
g[c_partid="part_pad"][layerid="11"] ellipse:not([c_etype="pad_outer"]) {fill:#000000;}
g[c_partid="part_pad"][layerid="11"] polygon:not([c_etype="pad_outer"]) {fill:#000000;}
g[c_partid="part_pad"][layerid="11"] polyline:not([c_etype="pad_outer"]) {stroke:#000000;}
g[c_partid="part_pad"][layerid="11"] circle {fill:#FFFFFF;}
g[c_partid="part_pad"][layerid="11"] > polyline:nth-of-type(2) {stroke:#FFFFFF;}
g[c_partid="part_pad"][layerid="11"][c_shape="ELLIPSE"]  polyline:nth-last-of-type(1) {stroke:#FFFFFF;}
g[c_partid="part_pad"][layerid="11"][c_shape="RECT"]  polyline:nth-last-of-type(1) {stroke:#FFFFFF;}
g[c_partid="part_pad"][layerid="11"][c_shape="POLYGON"]  polyline:nth-last-of-type(1) {stroke:#FFFFFF;}
g[c_partid="part_via"] > * + circle, #gCurParts g[c_partid="part_via"] > * + circle {fill:#FFFFFF;}
g[c_partid="part_pad"] > polygon[c_etype="pad_outer"], #gCurParts g[c_partid="part_pad"] > polygon[c_etype="pad_outer"] {stroke-linejoin: round;stroke-miterlimit: 100;}
g[c_partid="part_hole"] > circle {fill: #FFFFFF;}path, polyline, polygon {stroke-linejoin:round;}
rect, circle, ellipse, polyline, line, polygon, path {shape-rendering:crispEdges;}
</style>
<rect x="4010" y="3533" width="366.5" height="216.9" fill="#FFFFFF" stroke="none"/><polyline points="4237 3644.559 4237 3646.644" stroke-width="1"  stroke-linecap="round" fill="none" layerid="1" net="U1_7" id="gge2412" locked="0" /><polyline points="4233.211 3646.649 4236.995 3646.649 4237 3646.644" stroke-width="1"  stroke-linecap="round" fill="none" layerid="1" net="U1_7" id="gge2415" locked="0" /><polyline points="4195.244 3575.5 4195.244 3608.682 4233.211 3646.649" stroke-width="1"  stroke-linecap="round" fill="none" layerid="1" net="U1_7" id="gge2418" locked="0" /><polyline points="4190.5 3715.777 4193.189 3715.777 4233.211 3675.755 4233.211 3646.649" stroke-width="1"  stroke-linecap="round" fill="none" layerid="1" net="U1_7" id="gge2421" locked="0" /><polyline points="4190.5 3718.466 4190.5 3715.777" stroke-width="1"  stroke-linecap="round" fill="none" layerid="1" net="U1_7" id="gge2424" locked="0" /><polyline points="4237 3644.559 4238.968 3644.559" stroke-width="1"  stroke-linecap="round" fill="none" layerid="1" net="U1_7" id="gge2427" locked="0" /><polyline points="4200.756 3575.5 4198.08 3575.5" stroke-width="1"  stroke-linecap="round" fill="none" layerid="1" net="U1_2" id="gge2430" locked="0" /><polyline points="4060.365 3575 4063.435 3575" stroke-width="1"  stroke-linecap="round" fill="none" layerid="1" net="U1_2" id="gge2433" locked="0" /><polyline points="4063.435 3575 4063.435 3573.465 4065.761 3571.139 4196.395 3571.139 4198.08 3572.824 4198.08 3575.5" stroke-width="1"  stroke-linecap="round" fill="none" layerid="1" net="U1_2" id="gge2436" locked="0" /><polyline points="4200.756 3575.5 4203.432 3575.5" stroke-width="1"  stroke-linecap="round" fill="none" layerid="1" net="U1_2" id="gge2439" locked="0" /><polyline points="4237 3639.441 4237 3609.068 4203.432 3575.5" stroke-width="1"  stroke-linecap="round" fill="none" layerid="1" net="U1_2" id="gge2442" locked="0" /><polyline points="4190.5 3712.534 4190.5 3709.846" stroke-width="1"  stroke-linecap="round" fill="none" layerid="1" net="LED1_1" id="gge2445" locked="0" /><polyline points="4190.5 3709.846 4068.635 3587.981 4068.635 3575" stroke-width="1"  stroke-linecap="round" fill="none" layerid="1" net="LED1_1" id="gge2448" locked="0" /><polyline points="4239.3619 3641.9998 4255.0998 3641.9998 4257.2 3644.1" stroke-width="1"  stroke-linecap="round" fill="none" layerid="1" net="U1_8" id="gge2457" locked="0" /><polyline points="4257.181 3644.063 4257.681 3644.063 4260.319 3644.063 4260.969 3644.713 4260.969 3725.421" stroke-width="1.181"  stroke-linecap="round" fill="none" layerid="1" net="" id="gge21" locked="0" /><polyline points="4270.417 3557.705 4270.417 3638.413 4271.067 3639.063 4272.681 3639.063" stroke-width="1.181"  stroke-linecap="round" fill="none" layerid="1" net="" id="gge24" locked="0" /><polyline points="4263.331 3725.421 4263.331 3643.925 4260.969 3641.563 4260.969 3557.705" stroke-width="1.181"  stroke-linecap="round" fill="none" layerid="1" net="" id="gge27" locked="0" /><polyline points="4268.055 3725.421 4268.055 3642.35 4265.693 3639.988 4265.693 3557.705" stroke-width="1.181"  stroke-linecap="round" fill="none" layerid="1" net="" id="gge30" locked="0" /><polyline points="4265.693 3725.421 4265.693 3643.138 4263.331 3640.776 4263.331 3557.705" stroke-width="1.181"  stroke-linecap="round" fill="none" layerid="1" net="" id="gge33" locked="0" /><polyline points="4270.417 3725.421 4270.417 3641.563 4268.055 3639.201 4268.055 3557.705" stroke-width="1.181"  stroke-linecap="round" fill="none" layerid="1" net="" id="gge36" locked="0" /><polyline points="4271.599 3547.075 4348.764 3547.075" stroke-width="1.181"  stroke-linecap="round" fill="none" layerid="1" net="" id="gge99" locked="0" /><polyline points="4271.599 3549.437 4348.764 3549.437" stroke-width="1.181"  stroke-linecap="round" fill="none" layerid="1" net="" id="gge102" locked="0" /><polyline points="4271.599 3551.799 4348.764 3551.799" stroke-width="1.181"  stroke-linecap="round" fill="none" layerid="1" net="" id="gge105" locked="0" /><polyline points="4271.599 3554.162 4348.764 3554.162" stroke-width="1.181"  stroke-linecap="round" fill="none" layerid="1" net="" id="gge108" locked="0" /><polyline points="4271.599 3556.524 4348.764 3556.524" stroke-width="1.181"  stroke-linecap="round" fill="none" layerid="1" net="" id="gge111" locked="0" /><polyline points="4271.599 3736.051 4348.764 3736.051" stroke-width="1.181"  stroke-linecap="round" fill="none" layerid="1" net="" id="gge114" locked="0" /><polyline points="4271.599 3733.689 4348.764 3733.689" stroke-width="1.181"  stroke-linecap="round" fill="none" layerid="1" net="" id="gge117" locked="0" /><polyline points="4271.599 3731.327 4348.764 3731.327" stroke-width="1.181"  stroke-linecap="round" fill="none" layerid="1" net="" id="gge120" locked="0" /><polyline points="4271.599 3728.964 4348.764 3728.964" stroke-width="1.181"  stroke-linecap="round" fill="none" layerid="1" net="" id="gge123" locked="0" /><polyline points="4271.599 3726.602 4348.764 3726.602" stroke-width="1.181"  stroke-linecap="round" fill="none" layerid="1" net="" id="gge126" locked="0" /><polyline points="4359.394 3725.421 4359.394 3557.705" stroke-width="1.181"  stroke-linecap="round" fill="none" layerid="1" net="" id="gge129" locked="0" /><polyline points="4357.031 3725.421 4357.031 3557.705" stroke-width="1.181"  stroke-linecap="round" fill="none" layerid="1" net="" id="gge132" locked="0" /><polyline points="4354.669 3725.421 4354.669 3557.705" stroke-width="1.181"  stroke-linecap="round" fill="none" layerid="1" net="" id="gge135" locked="0" /><polyline points="4352.307 3725.421 4352.307 3557.705" stroke-width="1.181"  stroke-linecap="round" fill="none" layerid="1" net="" id="gge138" locked="0" /><polyline points="4349.945 3725.421 4349.945 3557.705" stroke-width="1.181"  stroke-linecap="round" fill="none" layerid="1" net="" id="gge141" locked="0" /><g c_partid="part_pad" c_etype="pinpart" c_origin="4257.2,3644.1" layerid="1" number="P$1" net="U1_8" plated ="Y"  id="gge144" locked="0" c_rotation="90" c_width="1.1811" c_height="1.1811" title="U1_8" c_shape="ELLIPSE" pasteexpansion="0" solderexpansion="0"><ellipse c_etype="pad_shell" cx="4257.2" cy="3644.1" rx="0.59055" ry="0.59055" layerid="1" stroke-width="0"/><circle c_etype="pad_hole" cx="4257.2" cy="3644.1" r="0" layerid="1" stroke-width="0"/></g><g c_partid="part_pad" c_etype="pinpart" c_origin="4272.689,3639.067" layerid="1" number="P$2" net="U1_1" plated ="Y"  id="gge159" locked="0" c_rotation="90" c_width="1.1811" c_height="1.1811" title="U1_1" c_shape="ELLIPSE" pasteexpansion="0" solderexpansion="0"><ellipse c_etype="pad_shell" cx="4272.689" cy="3639.067" rx="0.59055" ry="0.59055" layerid="1" stroke-width="0"/><circle c_etype="pad_hole" cx="4272.6891" cy="3639.0669" r="0" layerid="1" stroke-width="0"/></g><g c_partid="part_pad" c_etype="pinpart" c_origin="4195.244,3575.5" layerid="1" number="2" net="U1_7" plated ="Y"  id="gge240" locked="0" c_rotation="180" c_width="3.1496" c_height="3.5433" title="U1_7" c_shape="RECT" pasteexpansion="0.0000" solderexpansion="0.2000"><polygon  c_etype="pad_shell" points="4196.8189 3577.2717 4193.6693 3577.2717 4193.6693 3573.7283 4196.8189 3573.7283" layerid="1" stroke-width="0" /><circle c_etype="pad_hole" cx="4195.2445" cy="3575.5" r="0" layerid="1" stroke-width="0"/></g><g c_partid="part_pad" c_etype="pinpart" c_origin="4200.756,3575.5" layerid="1" number="1" net="U1_2" plated ="Y"  id="gge255" locked="0" c_rotation="180" c_width="3.1496" c_height="3.5433" title="U1_2" c_shape="RECT" pasteexpansion="0.0000" solderexpansion="0.2000"><polygon  c_etype="pad_shell" points="4202.3307 3577.2717 4199.1811 3577.2717 4199.1811 3573.7283 4202.3307 3573.7283" layerid="1" stroke-width="0" /><circle c_etype="pad_hole" cx="4200.7555" cy="3575.5" r="0" layerid="1" stroke-width="0"/></g><g c_partid="part_pad" c_etype="pinpart" c_origin="4060.365,3575" layerid="1" number="2" net="U1_2" plated ="Y"  id="gge327" locked="0" c_rotation="180" c_width="3.937" c_height="5.51" title="U1_2" c_shape="RECT" pasteexpansion="0" solderexpansion="0.2"><polygon  c_etype="pad_shell" points="4058.3965 3577.755 4062.3335 3577.755 4062.3335 3572.245 4058.3965 3572.245" layerid="1" stroke-width="0" /><circle c_etype="pad_hole" cx="4060.365" cy="3575" r="0" layerid="1" stroke-width="0"/></g><g c_partid="part_pad" c_etype="pinpart" c_origin="4068.635,3575" layerid="1" number="1" net="LED1_1" plated ="Y"  id="gge342" locked="0" c_rotation="180" c_width="3.937" c_height="5.51" title="LED1_1" c_shape="RECT" pasteexpansion="0" solderexpansion="0.2"><polygon  c_etype="pad_shell" points="4070.6035 3577.755 4066.6665 3577.755 4066.6665 3572.245 4070.6035 3572.245" layerid="1" stroke-width="0" /><circle c_etype="pad_hole" cx="4068.635" cy="3575" r="0" layerid="1" stroke-width="0"/></g><g c_partid="part_pad" c_etype="pinpart" c_origin="4190.5,3718.466" layerid="1" number="2" net="U1_7" plated ="Y"  id="gge396" locked="0" c_rotation="270" c_width="3.1751" c_height="3.4016" title="U1_7" c_shape="RECT" pasteexpansion="-393.7008" solderexpansion="0.2000"><polygon  c_etype="pad_shell" points="4188.7992 3716.878 4192.2008 3716.878 4192.2008 3720.0531 4188.7992 3720.0531" layerid="1" stroke-width="0" /><circle c_etype="pad_hole" cx="4190.5" cy="3718.4655" r="0" layerid="1" stroke-width="0"/></g><g c_partid="part_pad" c_etype="pinpart" c_origin="4190.5,3712.534" layerid="1" number="1" net="LED1_1" plated ="Y"  id="gge408" locked="0" c_rotation="270" c_width="3.1751" c_height="3.4016" title="LED1_1" c_shape="RECT" pasteexpansion="-393.7008" solderexpansion="0.2000"><polygon  c_etype="pad_shell" points="4188.7992 3714.122 4192.2008 3714.122 4192.2008 3710.9469 4188.7992 3710.9469" layerid="1" stroke-width="0" /><circle c_etype="pad_hole" cx="4190.5" cy="3712.5345" r="0" layerid="1" stroke-width="0"/></g><g c_partid="part_pad" c_etype="pinpart" c_origin="4238.968,3639.441" layerid="1" number="1" net="U1_1" plated ="Y"  id="gge501" locked="0" c_rotation="270" c_width="1.9685" c_height="1.1024" title="U1_1" c_shape="RECT" pasteexpansion="0" solderexpansion="0.2"><polygon  c_etype="pad_shell" points="4239.5191 3638.4565 4239.5191 3640.425 4238.4167 3640.425 4238.4167 3638.4565" layerid="1" stroke-width="0" /><circle c_etype="pad_hole" cx="4238.9684" cy="3639.441" r="0" layerid="1" stroke-width="0"/></g><g c_partid="part_pad" c_etype="pinpart" c_origin="4237,3639.441" layerid="1" number="2" net="U1_2" plated ="Y"  id="gge516" locked="0" c_rotation="270" c_width="1.9685" c_height="1.1024" title="U1_2" c_shape="RECT" pasteexpansion="0" solderexpansion="0.2"><polygon  c_etype="pad_shell" points="4237.5511 3638.4565 4237.5511 3640.425 4236.4487 3640.425 4236.4487 3638.4565" layerid="1" stroke-width="0" /><circle c_etype="pad_hole" cx="4237.0004" cy="3639.441" r="0" layerid="1" stroke-width="0"/></g><g c_partid="part_pad" c_etype="pinpart" c_origin="4235.032,3639.441" layerid="1" number="3" net="U1_3" plated ="Y"  id="gge531" locked="0" c_rotation="270" c_width="1.9685" c_height="1.1024" title="U1_3" c_shape="RECT" pasteexpansion="0" solderexpansion="0.2"><polygon  c_etype="pad_shell" points="4235.5831 3638.4565 4235.5831 3640.425 4234.4807 3640.425 4234.4807 3638.4565" layerid="1" stroke-width="0" /><circle c_etype="pad_hole" cx="4235.0314" cy="3639.441" r="0" layerid="1" stroke-width="0"/></g><g c_partid="part_pad" c_etype="pinpart" c_origin="4234.638,3642" layerid="1" number="4" net="U1_4" plated ="Y"  id="gge546" locked="0" c_rotation="0" c_width="1.7717" c_height="1.1811" title="U1_4" c_shape="RECT" pasteexpansion="0" solderexpansion="0.2"><polygon  c_etype="pad_shell" points="4233.7521 3641.4092 4235.5237 3641.4092 4235.5237 3642.5903 4233.7521 3642.5903" layerid="1" stroke-width="0" /><circle c_etype="pad_hole" cx="4234.6376" cy="3642" r="0" layerid="1" stroke-width="0"/></g><g c_partid="part_pad" c_etype="pinpart" c_origin="4235.031,3644.559" layerid="1" number="5" net="U1_5" plated ="Y"  id="gge561" locked="0" c_rotation="270" c_width="1.9685" c_height="1.1024" title="U1_5" c_shape="RECT" pasteexpansion="0" solderexpansion="0.2"><polygon  c_etype="pad_shell" points="4235.5821 3643.5745 4235.5821 3645.543 4234.4797 3645.543 4234.4797 3643.5745" layerid="1" stroke-width="0" /><circle c_etype="pad_hole" cx="4235.0314" cy="3644.559" r="0" layerid="1" stroke-width="0"/></g><g c_partid="part_pad" c_etype="pinpart" c_origin="4237,3644.559" layerid="1" number="6" net="U1_7" plated ="Y"  id="gge576" locked="0" c_rotation="270" c_width="1.9685" c_height="1.1024" title="U1_7" c_shape="RECT" pasteexpansion="0" solderexpansion="0.2"><polygon  c_etype="pad_shell" points="4237.5511 3643.5745 4237.5511 3645.543 4236.4487 3645.543 4236.4487 3643.5745" layerid="1" stroke-width="0" /><circle c_etype="pad_hole" cx="4236.9994" cy="3644.559" r="0" layerid="1" stroke-width="0"/></g><g c_partid="part_pad" c_etype="pinpart" c_origin="4238.968,3644.559" layerid="1" number="7" net="U1_7" plated ="Y"  id="gge591" locked="0" c_rotation="270" c_width="1.9685" c_height="1.1024" title="U1_7" c_shape="RECT" pasteexpansion="0" solderexpansion="0.2"><polygon  c_etype="pad_shell" points="4239.5191 3643.5745 4239.5191 3645.543 4238.4167 3645.543 4238.4167 3643.5745" layerid="1" stroke-width="0" /><circle c_etype="pad_hole" cx="4238.9684" cy="3644.559" r="0" layerid="1" stroke-width="0"/></g><g c_partid="part_pad" c_etype="pinpart" c_origin="4239.362,3642" layerid="1" number="8" net="U1_8" plated ="Y"  id="gge606" locked="0" c_rotation="0" c_width="1.7717" c_height="1.1811" title="U1_8" c_shape="RECT" pasteexpansion="0" solderexpansion="0.2"><polygon  c_etype="pad_shell" points="4238.4761 3641.4092 4240.2477 3641.4092 4240.2477 3642.5903 4238.4761 3642.5903" layerid="1" stroke-width="0" /><circle c_etype="pad_hole" cx="4239.3622" cy="3642" r="0" layerid="1" stroke-width="0"/></g><g c_partid="part_pad" c_etype="pinpart" c_origin="4237,3642" layerid="1" number="9" net="U1_9" plated ="Y"  id="gge621" locked="0" c_rotation="0" c_width="1.1811" c_height="1.1811" title="U1_9" c_shape="RECT" pasteexpansion="0" solderexpansion="0.2"><polygon  c_etype="pad_shell" points="4236.4098 3641.4094 4237.591 3641.4094 4237.591 3642.5905 4236.4098 3642.5905" layerid="1" stroke-width="0" /><circle c_etype="pad_hole" cx="4236.9994" cy="3642" r="0" layerid="1" stroke-width="0"/></g><path d="M 4359.394 3557.705 A 10.63 10.63 0 0 0 4348.764 3547.075" locked="0"  fill="none" stroke-width="1.181" c_helper_type="arc2" net="" layerid="1" id="gge39" /><path d="M 4357.031 3557.705 A 8.268 8.268 0 0 0 4348.764 3549.437" locked="0"  fill="none" stroke-width="1.181" c_helper_type="arc2" net="" layerid="1" id="gge42" /><path d="M 4354.669 3557.705 A 5.905 5.905 0 0 0 4348.764 3551.799" locked="0"  fill="none" stroke-width="1.181" c_helper_type="arc2" net="" layerid="1" id="gge45" /><path d="M 4352.307 3557.705 A 3.543 3.543 0 0 0 4348.764 3554.162" locked="0"  fill="none" stroke-width="1.181" c_helper_type="arc2" net="" layerid="1" id="gge48" /><path d="M 4349.945 3557.705 A 1.181 1.181 0 0 0 4348.764 3556.524" locked="0"  fill="none" stroke-width="1.181" c_helper_type="arc2" net="" layerid="1" id="gge51" /><path d="M 4359.394 3725.421 A 10.63 10.63 0 0 1 4348.764 3736.051" locked="0"  fill="none" stroke-width="1.181" c_helper_type="arc2" net="" layerid="1" id="gge54" /><path d="M 4357.031 3725.421 A 8.268 8.268 0 0 1 4348.764 3733.689" locked="0"  fill="none" stroke-width="1.181" c_helper_type="arc2" net="" layerid="1" id="gge57" /><path d="M 4354.669 3725.421 A 5.905 5.905 0 0 1 4348.764 3731.327" locked="0"  fill="none" stroke-width="1.181" c_helper_type="arc2" net="" layerid="1" id="gge60" /><path d="M 4352.307 3725.421 A 3.543 3.543 0 0 1 4348.764 3728.964" locked="0"  fill="none" stroke-width="1.181" c_helper_type="arc2" net="" layerid="1" id="gge63" /><path d="M 4349.945 3725.421 A 1.181 1.181 0 0 1 4348.764 3726.602" locked="0"  fill="none" stroke-width="1.181" c_helper_type="arc2" net="" layerid="1" id="gge66" /><path d="M 4260.969 3725.421 A 10.63 10.63 0 0 0 4271.599 3736.051" locked="0"  fill="none" stroke-width="1.181" c_helper_type="arc2" net="" layerid="1" id="gge69" /><path d="M 4263.331 3725.421 A 8.268 8.268 0 0 0 4271.599 3733.689" locked="0"  fill="none" stroke-width="1.181" c_helper_type="arc2" net="" layerid="1" id="gge72" /><path d="M 4265.693 3725.421 A 5.905 5.905 0 0 0 4271.599 3731.327" locked="0"  fill="none" stroke-width="1.181" c_helper_type="arc2" net="" layerid="1" id="gge75" /><path d="M 4268.055 3725.421 A 3.543 3.543 0 0 0 4271.599 3728.964" locked="0"  fill="none" stroke-width="1.181" c_helper_type="arc2" net="" layerid="1" id="gge78" /><path d="M 4270.417 3725.421 A 1.181 1.181 0 0 0 4271.599 3726.602" locked="0"  fill="none" stroke-width="1.181" c_helper_type="arc2" net="" layerid="1" id="gge81" /><path d="M 4260.969 3557.705 A 10.63 10.63 0 0 1 4271.599 3547.075" locked="0"  fill="none" stroke-width="1.181" c_helper_type="arc2" net="" layerid="1" id="gge84" /><path d="M 4263.331 3557.705 A 8.268 8.268 0 0 1 4271.599 3549.437" locked="0"  fill="none" stroke-width="1.181" c_helper_type="arc2" net="" layerid="1" id="gge87" /><path d="M 4265.693 3557.705 A 5.905 5.905 0 0 1 4271.599 3551.799" locked="0"  fill="none" stroke-width="1.181" c_helper_type="arc2" net="" layerid="1" id="gge90" /><path d="M 4268.055 3557.705 A 3.543 3.543 0 0 1 4271.599 3554.162" locked="0"  fill="none" stroke-width="1.181" c_helper_type="arc2" net="" layerid="1" id="gge93" /><path d="M 4270.417 3557.705 A 1.181 1.181 0 0 1 4271.599 3556.524" locked="0"  fill="none" stroke-width="1.181" c_helper_type="arc2" net="" layerid="1" id="gge96" /><polyline points="4192.5275 3577.0739 4192.5275 3573.9242" stroke-width="1"  stroke-linecap="round" fill="none" layerid="3" net="" id="gge201" locked="0" /><polyline points="4196.8966 3578.2938 4193.7471 3578.2938" stroke-width="1"  stroke-linecap="round" fill="none" layerid="3" net="" id="gge204" locked="0" /><polyline points="4196.8966 3572.7046 4193.7471 3572.7046" stroke-width="1"  stroke-linecap="round" fill="none" layerid="3" net="" id="gge207" locked="0" /><polyline points="4199.1639 3578.3167 4202.3135 3578.3167" stroke-width="1"  stroke-linecap="round" fill="none" layerid="3" net="" id="gge210" locked="0" /><polyline points="4203.5333 3577.0969 4203.5333 3573.9474" stroke-width="1"  stroke-linecap="round" fill="none" layerid="3" net="" id="gge213" locked="0" /><polyline points="4199.1639 3572.7277 4202.3135 3572.7277" stroke-width="1"  stroke-linecap="round" fill="none" layerid="3" net="" id="gge216" locked="0" /><polyline points="4065.2874 3573.0315 4063.7126 3574.6063 4063.3189 3575 4063.7126 3575.3947 4065.2874 3576.9695" stroke-width="1"  stroke-linecap="round" fill="none" layerid="3" net="" id="gge300" locked="0" /><polyline points="4065.2874 3573.0315 4065.2874 3576.9695" stroke-width="1"  stroke-linecap="round" fill="none" layerid="3" net="" id="gge303" locked="0" /><polyline points="4066.245 3579.005 4072.345 3579.005 4072.345 3571.005 4066.245 3571.005" stroke-width="1"  stroke-linecap="round" fill="none" layerid="3" net="" id="gge306" locked="0" /><polyline points="4063.145 3579.105 4057.345 3579.105 4055.745 3577.505 4055.745 3572.505 4057.245 3571.005 4063.245 3571.005" stroke-width="1"  stroke-linecap="round" fill="none" layerid="3" net="" id="gge309" locked="0" /><polyline points="4187.8992 3717.178 4187.8992 3720.9531 4193.1008 3720.9531 4193.1008 3717.178" stroke-width="0.6"  stroke-linecap="round" fill="none" layerid="3" net="" id="gge384" locked="0" /><polyline points="4187.8992 3713.822 4187.8992 3710.0469 4193.1008 3710.0469 4193.1008 3713.822" stroke-width="0.6"  stroke-linecap="round" fill="none" layerid="3" net="" id="gge387" locked="0" /><polyline points="4233.6215 3645.9371 4233.0629 3645.9371" stroke-width="1"  stroke-linecap="round" fill="none" layerid="3" net="" id="gge474" locked="0" /><polyline points="4240.937 3643.2799 4240.937 3645.9371 4240.3781 3645.9371" stroke-width="1"  stroke-linecap="round" fill="none" layerid="3" net="" id="gge477" locked="0" /><polyline points="4240.3781 3638.0631 4240.937 3638.0631 4240.937 3640.7208" stroke-width="1"  stroke-linecap="round" fill="none" layerid="3" net="" id="gge480" locked="0" /><polyline points="4233.0629 3638.0631 4233.6215 3638.0631" stroke-width="1"  stroke-linecap="round" fill="none" layerid="3" net="" id="gge483" locked="0" /><polyline points="4233.0629 3640.7208 4233.0629 3638.0631" stroke-width="1"  stroke-linecap="round" fill="none" layerid="3" net="" id="gge486" locked="0" /><polyline points="4233.0629 3645.9371 4233.0629 3643.2799" stroke-width="1"  stroke-linecap="round" fill="none" layerid="3" net="" id="gge489" locked="0" /><g c_partid="part_pcbtext" c_etype="" c_origin="4248.5,3642" c_rotation="90" c_mirror="0" id="gge9" locked="0" layerid="3" c_shapetype="group" display="none"><path c_fontsize="4.5" c_fontfamily="" c_text="25X48MM_NFC_ANTENNA" d="M 4244.98 3641.8 L 4244.78 3641.8 L 4244.37 3641.59 L 4244.16 3641.39 L 4243.96 3640.98 L 4243.96 3640.16 L 4244.16 3639.75 L 4244.37 3639.55 L 4244.78 3639.34 L 4245.19 3639.34 L 4245.6 3639.55 L 4246.21 3639.95 L 4248.25 3642 L 4248.25 3639.14 M 4243.96 3635.33 L 4243.96 3637.38 L 4245.8 3637.58 L 4245.6 3637.38 L 4245.39 3636.76 L 4245.39 3636.15 L 4245.6 3635.54 L 4246 3635.13 L 4246.62 3634.92 L 4247.03 3634.92 L 4247.64 3635.13 L 4248.05 3635.54 L 4248.25 3636.15 L 4248.25 3636.76 L 4248.05 3637.38 L 4247.85 3637.58 L 4247.44 3637.79 M 4243.96 3633.57 L 4248.25 3630.71 M 4243.96 3630.71 L 4248.25 3633.57 M 4243.96 3627.31 L 4246.82 3629.36 L 4246.82 3626.29 M 4243.96 3627.31 L 4248.25 3627.31 M 4243.96 3623.92 L 4244.16 3624.53 L 4244.57 3624.74 L 4244.98 3624.74 L 4245.39 3624.53 L 4245.6 3624.12 L 4245.8 3623.3 L 4246 3622.69 L 4246.41 3622.28 L 4246.82 3622.08 L 4247.44 3622.08 L 4247.85 3622.28 L 4248.05 3622.49 L 4248.25 3623.1 L 4248.25 3623.92 L 4248.05 3624.53 L 4247.85 3624.74 L 4247.44 3624.94 L 4246.82 3624.94 L 4246.41 3624.74 L 4246 3624.33 L 4245.8 3623.71 L 4245.6 3622.9 L 4245.39 3622.49 L 4244.98 3622.28 L 4244.57 3622.28 L 4244.16 3622.49 L 4243.96 3623.1 L 4243.96 3623.92 M 4243.96 3620.73 L 4248.25 3620.73 M 4243.96 3620.73 L 4248.25 3619.09 M 4243.96 3617.45 L 4248.25 3619.09 M 4243.96 3617.45 L 4248.25 3617.45 M 4243.96 3616.1 L 4248.25 3616.1 M 4243.96 3616.1 L 4248.25 3614.47 M 4243.96 3612.83 L 4248.25 3614.47 M 4243.96 3612.83 L 4248.25 3612.83 M 4249.69 3611.48 L 4249.69 3607.8 M 4243.96 3606.45 L 4248.25 3606.45 M 4243.96 3606.45 L 4248.25 3603.59 M 4243.96 3603.59 L 4248.25 3603.59 M 4243.96 3602.24 L 4248.25 3602.24 M 4243.96 3602.24 L 4243.96 3599.58 M 4246 3602.24 L 4246 3600.6 M 4244.98 3595.16 L 4244.57 3595.36 L 4244.16 3595.77 L 4243.96 3596.18 L 4243.96 3597 L 4244.16 3597.41 L 4244.57 3597.82 L 4244.98 3598.02 L 4245.6 3598.23 L 4246.62 3598.23 L 4247.23 3598.02 L 4247.64 3597.82 L 4248.05 3597.41 L 4248.25 3597 L 4248.25 3596.18 L 4248.05 3595.77 L 4247.64 3595.36 L 4247.23 3595.16 M 4249.69 3593.81 L 4249.69 3590.13 M 4243.96 3587.14 L 4248.25 3588.78 M 4243.96 3587.14 L 4248.25 3585.5 M 4246.82 3588.16 L 4246.82 3586.12 M 4243.96 3584.15 L 4248.25 3584.15 M 4243.96 3584.15 L 4248.25 3581.29 M 4243.96 3581.29 L 4248.25 3581.29 M 4243.96 3578.51 L 4248.25 3578.51 M 4243.96 3579.94 L 4243.96 3577.08 M 4243.96 3575.73 L 4248.25 3575.73 M 4243.96 3575.73 L 4243.96 3573.07 M 4246 3575.73 L 4246 3574.09 M 4248.25 3575.73 L 4248.25 3573.07 M 4243.96 3571.72 L 4248.25 3571.72 M 4243.96 3571.72 L 4248.25 3568.85 M 4243.96 3568.85 L 4248.25 3568.85 M 4243.96 3567.5 L 4248.25 3567.5 M 4243.96 3567.5 L 4248.25 3564.64 M 4243.96 3564.64 L 4248.25 3564.64 M 4243.96 3561.65 L 4248.25 3563.29 M 4243.96 3561.65 L 4248.25 3560.02 M 4246.82 3562.68 L 4246.82 3560.63" fill="none"  stroke-width="0.6" c_note="note_name" /></g><g c_partid="part_pcbtext" c_etype="" c_origin="4255.5,3642" c_rotation="90" c_mirror="0" id="gge15" locked="0" layerid="3" c_shapetype="group" ><path c_fontsize="4.5" c_fontfamily="" c_text="1" d="M 4251.78 3642 L 4251.57 3641.59 L 4250.96 3640.98 L 4255.25 3640.98" fill="none"  stroke-width="0.6" c_note="note_pre" /></g><g c_partid="part_pcbtext" c_etype="" c_origin="4199,3586.5" c_rotation="180" c_mirror="0" id="gge180" locked="0" layerid="3" c_shapetype="group" display="none"><path c_fontsize="4.5" c_fontfamily="" c_text="220nF" d="M 4198.8 3590.02 L 4198.8 3590.22 L 4198.59 3590.63 L 4198.39 3590.84 L 4197.98 3591.04 L 4197.16 3591.04 L 4196.75 3590.84 L 4196.55 3590.63 L 4196.34 3590.22 L 4196.34 3589.81 L 4196.55 3589.4 L 4196.95 3588.79 L 4199 3586.75 L 4196.14 3586.75 M 4194.58 3590.02 L 4194.58 3590.22 L 4194.38 3590.63 L 4194.17 3590.84 L 4193.76 3591.04 L 4192.95 3591.04 L 4192.54 3590.84 L 4192.33 3590.63 L 4192.13 3590.22 L 4192.13 3589.81 L 4192.33 3589.4 L 4192.74 3588.79 L 4194.79 3586.75 L 4191.92 3586.75 M 4189.35 3591.04 L 4189.96 3590.84 L 4190.37 3590.22 L 4190.57 3589.2 L 4190.57 3588.59 L 4190.37 3587.56 L 4189.96 3586.95 L 4189.35 3586.75 L 4188.94 3586.75 L 4188.32 3586.95 L 4187.91 3587.56 L 4187.71 3588.59 L 4187.71 3589.2 L 4187.91 3590.22 L 4188.32 3590.84 L 4188.94 3591.04 L 4189.35 3591.04 M 4186.36 3589.61 L 4186.36 3586.75 M 4186.36 3588.79 L 4185.75 3589.4 L 4185.34 3589.61 L 4184.72 3589.61 L 4184.31 3589.4 L 4184.11 3588.79 L 4184.11 3586.75 M 4182.76 3591.04 L 4182.76 3586.75 M 4182.76 3591.04 L 4180.1 3591.04 M 4182.76 3589 L 4181.12 3589" fill="none"  stroke-width="0.6" c_note="note_name" /></g><g c_partid="part_pcbtext" c_etype="" c_origin="4199,3579.5" c_rotation="180" c_mirror="0" id="gge186" locked="0" layerid="3" c_shapetype="group" ><path c_fontsize="4.5" c_fontfamily="" c_text="C1" d="M 4195.93 3583.02 L 4196.14 3583.43 L 4196.55 3583.84 L 4196.95 3584.04 L 4197.77 3584.04 L 4198.18 3583.84 L 4198.59 3583.43 L 4198.8 3583.02 L 4199 3582.4 L 4199 3581.38 L 4198.8 3580.77 L 4198.59 3580.36 L 4198.18 3579.95 L 4197.77 3579.75 L 4196.95 3579.75 L 4196.55 3579.95 L 4196.14 3580.36 L 4195.93 3580.77 M 4194.58 3583.22 L 4194.17 3583.43 L 4193.56 3584.04 L 4193.56 3579.75" fill="none"  stroke-width="0.6" c_note="note_pre" /></g><g c_partid="part_pcbtext" c_etype="" c_origin="4063.565,3563.005" c_rotation="0" c_mirror="0" id="gge276" locked="0" layerid="3" c_shapetype="group" display="none"><path c_fontsize="4.5" c_fontfamily="" c_text="17-21SUYC/TR8" d="M 4063.565 3559.285 L 4063.975 3559.075 L 4064.585 3558.465 L 4064.585 3562.755 M 4068.805 3558.465 L 4066.755 3562.755 M 4065.935 3558.465 L 4068.805 3558.465 M 4070.155 3560.915 L 4073.835 3560.915 M 4075.385 3559.485 L 4075.385 3559.285 L 4075.595 3558.875 L 4075.795 3558.665 L 4076.205 3558.465 L 4077.025 3558.465 L 4077.435 3558.665 L 4077.635 3558.875 L 4077.845 3559.285 L 4077.845 3559.695 L 4077.635 3560.105 L 4077.225 3560.715 L 4075.185 3562.755 L 4078.045 3562.755 M 4079.395 3559.285 L 4079.805 3559.075 L 4080.415 3558.465 L 4080.415 3562.755 M 4084.635 3559.075 L 4084.225 3558.665 L 4083.615 3558.465 L 4082.795 3558.465 L 4082.175 3558.665 L 4081.765 3559.075 L 4081.765 3559.485 L 4081.975 3559.895 L 4082.175 3560.105 L 4082.585 3560.305 L 4083.815 3560.715 L 4084.225 3560.915 L 4084.425 3561.125 L 4084.635 3561.535 L 4084.635 3562.145 L 4084.225 3562.555 L 4083.615 3562.755 L 4082.795 3562.755 L 4082.175 3562.555 L 4081.765 3562.145 M 4085.985 3558.465 L 4085.985 3561.535 L 4086.185 3562.145 L 4086.595 3562.555 L 4087.215 3562.755 L 4087.615 3562.755 L 4088.235 3562.555 L 4088.645 3562.145 L 4088.845 3561.535 L 4088.845 3558.465 M 4090.195 3558.465 L 4091.835 3560.505 L 4091.835 3562.755 M 4093.465 3558.465 L 4091.835 3560.505 M 4097.885 3559.485 L 4097.685 3559.075 L 4097.275 3558.665 L 4096.865 3558.465 L 4096.045 3558.465 L 4095.635 3558.665 L 4095.225 3559.075 L 4095.025 3559.485 L 4094.815 3560.105 L 4094.815 3561.125 L 4095.025 3561.735 L 4095.225 3562.145 L 4095.635 3562.555 L 4096.045 3562.755 L 4096.865 3562.755 L 4097.275 3562.555 L 4097.685 3562.145 L 4097.885 3561.735 M 4102.915 3557.645 L 4099.235 3564.195 M 4105.705 3558.465 L 4105.705 3562.755 M 4104.265 3558.465 L 4107.135 3558.465 M 4108.485 3558.465 L 4108.485 3562.755 M 4108.485 3558.465 L 4110.325 3558.465 L 4110.935 3558.665 L 4111.145 3558.875 L 4111.345 3559.285 L 4111.345 3559.695 L 4111.145 3560.105 L 4110.935 3560.305 L 4110.325 3560.505 L 4108.485 3560.505 M 4109.915 3560.505 L 4111.345 3562.755 M 4113.715 3558.465 L 4113.105 3558.665 L 4112.905 3559.075 L 4112.905 3559.485 L 4113.105 3559.895 L 4113.515 3560.105 L 4114.335 3560.305 L 4114.945 3560.505 L 4115.355 3560.915 L 4115.565 3561.325 L 4115.565 3561.945 L 4115.355 3562.355 L 4115.155 3562.555 L 4114.535 3562.755 L 4113.715 3562.755 L 4113.105 3562.555 L 4112.905 3562.355 L 4112.695 3561.945 L 4112.695 3561.325 L 4112.905 3560.915 L 4113.315 3560.505 L 4113.925 3560.305 L 4114.745 3560.105 L 4115.155 3559.895 L 4115.355 3559.485 L 4115.355 3559.075 L 4115.155 3558.665 L 4114.535 3558.465 L 4113.715 3558.465" fill="none"  stroke-width="0.6" c_note="note_name" /></g><g c_partid="part_pcbtext" c_etype="" c_origin="4063.565,3570.005" c_rotation="0" c_mirror="0" id="gge282" locked="0" layerid="3" c_shapetype="group" ><path c_fontsize="4.5" c_fontfamily="" c_text="LED1" d="M 4063.565 3565.465 L 4063.565 3569.755 M 4063.565 3569.755 L 4066.015 3569.755 M 4067.365 3565.465 L 4067.365 3569.755 M 4067.365 3565.465 L 4070.025 3565.465 M 4067.365 3567.505 L 4069.005 3567.505 M 4067.365 3569.755 L 4070.025 3569.755 M 4071.375 3565.465 L 4071.375 3569.755 M 4071.375 3565.465 L 4072.815 3565.465 L 4073.425 3565.665 L 4073.835 3566.075 L 4074.035 3566.485 L 4074.245 3567.105 L 4074.245 3568.125 L 4074.035 3568.735 L 4073.835 3569.145 L 4073.425 3569.555 L 4072.815 3569.755 L 4071.375 3569.755 M 4075.595 3566.285 L 4076.005 3566.075 L 4076.615 3565.465 L 4076.615 3569.755" fill="none"  stroke-width="0.6" c_note="note_pre" /></g><g c_partid="part_pcbtext" c_etype="" c_origin="4207.04,3715.047" c_rotation="270" c_mirror="0" id="gge663" locked="0" layerid="3" c_shapetype="group" display="none"><path c_fontsize="4.5" c_fontfamily="NotoSerifCJKsc-Medium" c_text="47Ω" d="M 4208.21 3715.3869 L 4209.6 3716.3569 L 4208.21 3716.3569 Z M 4208.21 3717.1669 L 4208.21 3716.7069 L 4210.02 3716.7069 L 4210.02 3716.4669 L 4208.16 3715.1669 L 4207.95 3715.1669 L 4207.95 3716.3569 L 4207.04 3716.3569 L 4207.04 3716.7069 L 4207.95 3716.7069 L 4207.95 3717.1669 Z M 4209.97 3717.4669 L 4209.63 3717.4669 L 4209.63 3718.9969 L 4207.08 3717.8269 L 4207.04 3717.8669 L 4207.04 3718.2069 L 4209.76 3719.2469 L 4209.97 3719.2469 Z M 4207.78 3722.2369 L 4207.35 3722.1369 L 4207.35 3721.5169 L 4207.35 3721.5169 C 4207.67 3721.9669 4208.14 3722.3269 4208.71 3722.3269 C 4209.57 3722.3269 4210.04 3721.7169 4210.04 3721.0469 C 4210.04 3720.3569 4209.57 3719.7569 4208.71 3719.7569 C 4208.14 3719.7569 4207.67 3720.1169 4207.35 3720.5669 L 4207.35 3720.5669 L 4207.35 3719.9469 L 4207.78 3719.8469 L 4207.78 3719.6169 L 4207.04 3719.6569 L 4207.04 3720.8269 L 4207.31 3720.8269 C 4207.64 3720.4269 4208.16 3720.1669 4208.71 3720.1669 C 4209.36 3720.1669 4209.85 3720.4869 4209.85 3721.0469 C 4209.85 3721.5869 4209.36 3721.9169 4208.71 3721.9169 C 4208.16 3721.9169 4207.64 3721.6569 4207.31 3721.2469 L 4207.04 3721.2469 L 4207.04 3722.4269 L 4207.78 3722.4669 Z"  stroke="none" stroke-width="0.6" c_note="note_name" /></g><g c_partid="part_pcbtext" c_etype="" c_origin="4194.5,3715.5" c_rotation="270" c_mirror="0" id="gge360" locked="0" layerid="3" c_shapetype="group" ><path c_fontsize="4.5" c_fontfamily="" c_text="R1" d="M 4199.04 3715.5 L 4194.75 3715.5 M 4199.04 3715.5 L 4199.04 3717.34 L 4198.84 3717.95 L 4198.63 3718.16 L 4198.22 3718.36 L 4197.81 3718.36 L 4197.4 3718.16 L 4197.2 3717.95 L 4197 3717.34 L 4197 3715.5 M 4197 3716.93 L 4194.75 3718.36 M 4198.22 3719.71 L 4198.43 3720.12 L 4199.04 3720.74 L 4194.75 3720.74" fill="none"  stroke-width="0.6" c_note="note_pre" /></g><g c_partid="part_pcbtext" c_etype="" c_origin="4237.656,3654.706" c_rotation="180" c_mirror="0" id="gge426" locked="0" layerid="3" c_shapetype="group" display="none"><path c_fontsize="4.5" c_fontfamily="" c_text="NT3H2111W0FHKH" d="M 4237.6559 3659.2458 L 4237.6559 3654.9558 M 4237.6559 3659.2458 L 4234.7959 3654.9558 M 4234.7959 3659.2458 L 4234.7959 3654.9558 M 4232.0059 3659.2458 L 4232.0059 3654.9558 M 4233.4459 3659.2458 L 4230.5759 3659.2458 M 4228.8159 3659.2458 L 4226.5659 3659.2458 L 4227.7959 3657.6058 L 4227.1859 3657.6058 L 4226.7759 3657.4058 L 4226.5659 3657.2058 L 4226.3659 3656.5858 L 4226.3659 3656.1758 L 4226.5659 3655.5658 L 4226.9759 3655.1558 L 4227.5959 3654.9558 L 4228.2059 3654.9558 L 4228.8159 3655.1558 L 4229.0259 3655.3558 L 4229.2259 3655.7658 M 4225.0159 3659.2458 L 4225.0159 3654.9558 M 4222.1559 3659.2458 L 4222.1559 3654.9558 M 4225.0159 3657.2058 L 4222.1559 3657.2058 M 4220.5959 3658.2258 L 4220.5959 3658.4258 L 4220.3959 3658.8358 L 4220.1859 3659.0458 L 4219.7759 3659.2458 L 4218.9559 3659.2458 L 4218.5559 3659.0458 L 4218.3459 3658.8358 L 4218.1459 3658.4258 L 4218.1459 3658.0158 L 4218.3459 3657.6058 L 4218.7559 3656.9958 L 4220.8059 3654.9558 L 4217.9359 3654.9558 M 4216.5859 3658.4258 L 4216.1759 3658.6358 L 4215.5659 3659.2458 L 4215.5659 3654.9558 M 4214.2159 3658.4258 L 4213.8059 3658.6358 L 4213.1959 3659.2458 L 4213.1959 3654.9558 M 4211.8459 3658.4258 L 4211.4359 3658.6358 L 4210.8159 3659.2458 L 4210.8159 3654.9558 M 4209.4659 3659.2458 L 4208.4459 3654.9558 M 4207.4259 3659.2458 L 4208.4459 3654.9558 M 4207.4259 3659.2458 L 4206.4059 3654.9558 M 4205.3759 3659.2458 L 4206.4059 3654.9558 M 4202.8059 3659.2458 L 4203.4159 3659.0458 L 4203.8259 3658.4258 L 4204.0259 3657.4058 L 4204.0259 3656.7958 L 4203.8259 3655.7658 L 4203.4159 3655.1558 L 4202.8059 3654.9558 L 4202.3959 3654.9558 L 4201.7759 3655.1558 L 4201.3659 3655.7658 L 4201.1659 3656.7958 L 4201.1659 3657.4058 L 4201.3659 3658.4258 L 4201.7759 3659.0458 L 4202.3959 3659.2458 L 4202.8059 3659.2458 M 4199.8159 3659.2458 L 4199.8159 3654.9558 M 4199.8159 3659.2458 L 4197.1559 3659.2458 M 4199.8159 3657.2058 L 4198.1759 3657.2058 M 4195.8059 3659.2458 L 4195.8059 3654.9558 M 4192.9459 3659.2458 L 4192.9459 3654.9558 M 4195.8059 3657.2058 L 4192.9459 3657.2058 M 4191.5959 3659.2458 L 4191.5959 3654.9558 M 4188.7259 3659.2458 L 4191.5959 3656.3858 M 4190.5659 3657.4058 L 4188.7259 3654.9558 M 4187.3759 3659.2458 L 4187.3759 3654.9558 M 4184.5159 3659.2458 L 4184.5159 3654.9558 M 4187.3759 3657.2058 L 4184.5159 3657.2058" fill="none"  stroke-width="0.6" c_note="note_name" /></g><g c_partid="part_pcbtext" c_etype="" c_origin="4237.656,3647.706" c_rotation="180" c_mirror="0" id="gge432" locked="0" layerid="3" c_shapetype="group" ><path c_fontsize="4.5" c_fontfamily="" c_text="U1" d="M 4237.6559 3652.2458 L 4237.6559 3649.1758 L 4237.4559 3648.5658 L 4237.0459 3648.1558 L 4236.4259 3647.9558 L 4236.0159 3647.9558 L 4235.4059 3648.1558 L 4234.9959 3648.5658 L 4234.7959 3649.1758 L 4234.7959 3652.2458 M 4233.4459 3651.4258 L 4233.0359 3651.6358 L 4232.4159 3652.2458 L 4232.4159 3647.9558" fill="none"  stroke-width="0.6" c_note="note_pre" /></g><path d="M 4203.5335 3577.0969 A 1.2198 1.2198 0 0 1 4202.3137 3578.3167" locked="0"  fill="none" stroke-width="1" c_helper_type="arc2" net="" layerid="3" id="gge219" /><path d="M 4202.3137 3572.7275 A 1.2198 1.2198 0 0 1 4203.5335 3573.9474" locked="0"  fill="none" stroke-width="1" c_helper_type="arc2" net="" layerid="3" id="gge222" /><path d="M 4193.7473 3578.2938 A 1.2198 1.2198 0 0 1 4192.5275 3577.0739" locked="0"  fill="none" stroke-width="1" c_helper_type="arc2" net="" layerid="3" id="gge225" /><path d="M 4192.5275 3573.9244 A 1.2198 1.2198 0 0 1 4193.7473 3572.7046" locked="0"  fill="none" stroke-width="1" c_helper_type="arc2" net="" layerid="3" id="gge228" /><circle cx="4238.999" cy="3637" r="0.25" stroke-width="1" fill="none" layerid="3" id="gge492" locked="0"  /><polyline points="4020 3724.102 4020 3558.748" stroke-width="1"  stroke-linecap="round" fill="none" layerid="10" net="" id="gge684" locked="0" /><polyline points="4350.708 3739.85 4035.748 3739.85" stroke-width="1"  stroke-linecap="round" fill="none" layerid="10" net="" id="gge678" locked="0" /><polyline points="4366.456 3558.748 4366.456 3724.102" stroke-width="1"  stroke-linecap="round" fill="none" layerid="10" net="" id="gge672" locked="0" /><polyline points="4035.748 3543 4350.708 3543" stroke-width="1"  stroke-linecap="round" fill="none" layerid="10" net="" id="gge666" locked="0" /><path d="M4350.708 3543A15.748 15.748 0 0 1 4366.456 3558.748" locked="0"  fill="none" stroke-width="1" c_helper_type="arc2" net="" layerid="10" id="gge669" /><path d="M4366.456 3724.102A15.748 15.748 0 0 1 4350.708 3739.85" locked="0"  fill="none" stroke-width="1" c_helper_type="arc2" net="" layerid="10" id="gge675" /><path d="M4035.748 3739.85A15.748 15.748 0 0 1 4020 3724.102" locked="0"  fill="none" stroke-width="1" c_helper_type="arc2" net="" layerid="10" id="gge681" /><path d="M4020 3558.748A15.748 15.748 0 0 1 4035.748 3543" locked="0"  fill="none" stroke-width="1" c_helper_type="arc2" net="" layerid="10" id="gge687" /></svg>